<?xml version="1.0" encoding="utf-8"?>
<!-- Generator: Adobe Illustrator 15.0.0, SVG Export Plug-In . SVG Version: 6.00 Build 0)  -->
<!DOCTYPE svg PUBLIC "-//W3C//DTD SVG 1.1//EN" "http://www.w3.org/Graphics/SVG/1.1/DTD/svg11.dtd">
<svg version="1.1" id="Layer_1" xmlns="http://www.w3.org/2000/svg" xmlns:xlink="http://www.w3.org/1999/xlink" x="0px" y="0px"
	 width="250px" height="227px" viewBox="84.5 125.5 250 227" enable-background="new 84.5 125.5 250 227" xml:space="preserve">
<g>
	<defs>
		<rect id="SVGID_1_" x="213.666" y="198.667" width="58.271" height="24"/>
	</defs>
	<clipPath id="SVGID_2_">
		<use xlink:href="#SVGID_1_"  overflow="visible"/>
	</clipPath>
	<g clip-path="url(#SVGID_2_)">
		<path fill="#ED166D" d="M271.838,221.948c0,0-22.469-31.567-53.604-19.901c-2.381,0.896-3.828,3.318-3.459,5.838
			c0.465,3.167,3.574,5.245,6.668,4.433C230.703,209.901,250.119,207.656,271.838,221.948"/>
	</g>
</g>
<path fill="#51ADE5" d="M260.334,184.25c1.723,5.281-1.152,10.963-6.422,12.693c-5.277,1.729-10.949-1.151-12.678-6.433
	c-1.725-5.281,1.15-10.963,6.422-12.692C252.932,176.088,258.604,178.969,260.334,184.25"/>
<g>
	<defs>
		<rect id="SVGID_3_" x="200.333" y="206.667" width="25.333" height="57.886"/>
	</defs>
	<clipPath id="SVGID_4_">
		<use xlink:href="#SVGID_3_"  overflow="visible"/>
	</clipPath>
	<g clip-path="url(#SVGID_4_)">
		<path fill="#7B167D" d="M219.725,264.553c0,0,16.063-35.271-9.594-56.443c-1.964-1.615-4.782-1.656-6.777-0.078
			c-2.51,1.984-2.75,5.719-0.505,8C209.572,222.849,221.219,238.568,219.725,264.553"/>
	</g>
</g>
<path fill="#ED166D" d="M246.568,235.724c-3.703,4.135-10.053,4.484-14.188,0.776c-4.131-3.708-4.48-10.068-0.771-14.208
	c3.703-4.141,10.053-4.484,14.188-0.776C249.928,225.224,250.275,231.583,246.568,235.724"/>
<path fill="#80CC28" d="M156.828,240.656c0,0,38.531-3.703,44.005-36.542c0.422-2.511-0.953-4.979-3.318-5.917
	c-2.974-1.182-6.318,0.474-7.167,3.563C187.807,211,180.042,228.963,156.828,240.656"/>
<path fill="#7B167D" d="M195.177,249.521c-5.433-1.141-8.906-6.474-7.766-11.917c1.141-5.438,6.469-8.917,11.901-7.776
	c5.427,1.146,8.906,6.479,7.766,11.917C205.932,247.188,200.609,250.666,195.177,249.521"/>
<g>
	<defs>
		<rect id="SVGID_5_" x="145.938" y="173.333" width="58.396" height="24"/>
	</defs>
	<clipPath id="SVGID_6_">
		<use xlink:href="#SVGID_5_"  overflow="visible"/>
	</clipPath>
	<g clip-path="url(#SVGID_6_)">
		<path fill="#F68C11" d="M146.042,174.156c0,0,22.469,31.568,53.604,19.896c2.38-0.891,3.823-3.318,3.458-5.839
			c-0.469-3.167-3.573-5.239-6.667-4.432C187.177,186.198,167.76,188.443,146.042,174.156"/>
	</g>
</g>
<path fill="#80CC28" d="M157.547,211.849c-1.724-5.276,1.146-10.964,6.422-12.693s10.948,1.151,12.677,6.432
	c1.724,5.281-1.151,10.964-6.427,12.693C164.948,220.01,159.271,217.13,157.547,211.849"/>
<path fill="#F68C11" d="M171.307,160.38c3.703-4.141,10.058-4.49,14.188-0.781c4.136,3.713,4.479,10.073,0.776,14.213
	c-3.703,4.135-10.052,4.484-14.188,0.776C167.953,170.875,167.604,164.516,171.307,160.38"/>
<g>
	<defs>
		<rect id="SVGID_7_" x="192.333" y="131.552" width="25.333" height="57.781"/>
	</defs>
	<clipPath id="SVGID_8_">
		<use xlink:href="#SVGID_7_"  overflow="visible"/>
	</clipPath>
	<g clip-path="url(#SVGID_8_)">
		<path fill="#57BDA9" d="M198.156,131.552c0,0-16.068,35.271,9.594,56.438c1.963,1.62,4.781,1.661,6.775,0.083
			c2.512-1.989,2.75-5.719,0.5-8C208.307,173.25,196.656,157.531,198.156,131.552"/>
	</g>
</g>
<path fill="#51ADE5" d="M217.041,191.99c-0.416,2.51,0.959,4.974,3.324,5.917c2.973,1.182,6.316-0.479,7.166-3.563
	c2.537-9.24,10.307-27.203,33.521-38.896C261.053,155.448,222.521,159.151,217.041,191.99"/>
<path fill="#57BDA9" d="M222.703,146.578c-5.432-1.141-10.76,2.338-11.9,7.776s2.338,10.776,7.766,11.917
	c5.432,1.146,10.76-2.339,11.9-7.776S228.135,147.719,222.703,146.578"/>
<g>
	<g transform="translate(98.11595, 242.633061)">
		<g>
			<path fill="#FFFFFF" d="M12.976,80.878l-2.104-6.854h-10.5l-2.083,6.854h-6.583L1.872,51.961H9.33l10.208,28.917H12.976z
				 M9.414,68.898c-1.933-6.208-3.021-9.719-3.271-10.541c-0.24-0.818-0.406-1.464-0.5-1.938c-0.448,1.682-1.688,5.844-3.729,12.479
				H9.414z"/>
		</g>
	</g>
</g>
<g>
	<g transform="translate(122.480058, 242.633061)">
		<g>
			<path fill="#FFFFFF" d="M8.994,80.878H2.973V50.211h6.021V80.878z"/>
		</g>
	</g>
</g>
<g>
	<g transform="translate(135.198309, 242.633061)">
		<g>
			<path fill="#FFFFFF" d="M16.504,76.482c1.042,0,2.297-0.229,3.771-0.688v4.479c-1.489,0.667-3.323,1-5.5,1
				c-2.417,0-4.177-0.604-5.271-1.813c-1.083-1.219-1.625-3.047-1.625-5.479V63.357H4.983v-2.542l3.313-2l1.75-4.667h3.833v4.709
				h6.167v4.5h-6.167v10.625c0,0.849,0.234,1.479,0.708,1.896C15.071,76.284,15.712,76.482,16.504,76.482z"/>
		</g>
	</g>
</g>
<g>
	<g transform="translate(151.818218, 242.633061)">
		<g>
			<path fill="#FFFFFF" d="M21.877,62.711c-1.281,0-2.281,0.406-3,1.209c-0.724,0.807-1.136,1.953-1.229,3.438h8.438
				c-0.031-1.484-0.417-2.631-1.167-3.438C24.169,63.117,23.153,62.711,21.877,62.711z M22.731,81.273
				c-3.542,0-6.313-0.979-8.313-2.938c-2-1.958-3-4.729-3-8.313c0-3.692,0.922-6.547,2.771-8.563
				c1.844-2.01,4.396-3.021,7.646-3.021c3.109,0,5.531,0.891,7.271,2.667c1.734,1.766,2.604,4.208,2.604,7.333v2.917H17.502
				c0.067,1.708,0.573,3.041,1.521,4c0.943,0.958,2.271,1.438,3.979,1.438c1.333,0,2.588-0.136,3.771-0.417
				c1.177-0.276,2.417-0.714,3.708-1.313v4.646c-1.057,0.531-2.182,0.917-3.375,1.167C25.908,81.138,24.45,81.273,22.731,81.273z"/>
		</g>
	</g>
</g>
<g>
	<g transform="translate(173.18218, 242.633061)">
		<g>
			<path fill="#FFFFFF" d="M40.206,80.878h-6V68.003c0-1.583-0.287-2.771-0.854-3.563c-0.558-0.792-1.453-1.188-2.688-1.188
				c-1.683,0-2.896,0.563-3.646,1.688c-0.75,1.114-1.125,2.974-1.125,5.583v10.354h-6.021V58.857h4.604l0.792,2.813h0.354
				c0.667-1.068,1.583-1.875,2.75-2.417c1.177-0.542,2.521-0.813,4.021-0.813c2.552,0,4.49,0.698,5.813,2.083
				c1.334,1.375,2,3.375,2,6V80.878z"/>
		</g>
	</g>
</g>
<g>
	<g transform="translate(196.556086, 242.633061)">
		<g>
			<path fill="#FFFFFF" d="M39.935,58.44c2.594,0,4.63,1.016,6.104,3.042c1.469,2.031,2.208,4.807,2.208,8.333
				c0,3.641-0.766,6.458-2.292,8.458c-1.516,2-3.578,3-6.188,3c-2.583,0-4.614-0.938-6.083-2.813h-0.417l-1,2.417h-4.604V50.211
				h6.021v7.146c0,0.906-0.083,2.354-0.25,4.354h0.25C35.086,59.534,37.169,58.44,39.935,58.44z M37.998,63.253
				c-1.489,0-2.573,0.458-3.25,1.375c-0.683,0.906-1.036,2.406-1.063,4.5v0.667c0,2.364,0.344,4.057,1.042,5.083
				c0.708,1.016,1.822,1.521,3.354,1.521c1.234,0,2.214-0.563,2.938-1.688c0.734-1.135,1.104-2.791,1.104-4.958
				s-0.37-3.792-1.104-4.875C40.279,63.795,39.274,63.253,37.998,63.253z"/>
		</g>
	</g>
</g>
<g>
	<g transform="translate(219.191042, 242.633061)">
		<g>
			<path fill="#FFFFFF" d="M50.814,80.878l-0.792-2.813h-0.333c-0.641,1.031-1.552,1.823-2.729,2.375
				c-1.182,0.552-2.531,0.833-4.041,0.833c-2.584,0-4.537-0.692-5.854-2.083c-1.308-1.386-1.958-3.38-1.958-5.979V58.857h6v12.854
				c0,1.6,0.275,2.792,0.833,3.584c0.567,0.791,1.469,1.188,2.708,1.188c1.678,0,2.896-0.563,3.646-1.688s1.125-2.984,1.125-5.584
				V58.857h6.021v22.021H50.814z"/>
		</g>
	</g>
</g>
<g>
	<g transform="translate(242.564957, 242.633061)">
		<g>
			<path fill="#FFFFFF" d="M55.314,58.44c0.801,0,1.479,0.058,2.02,0.167l-0.457,5.646c-0.49-0.136-1.078-0.208-1.771-0.208
				c-1.916,0-3.412,0.494-4.479,1.479c-1.074,0.99-1.605,2.37-1.605,4.146v11.208h-6.02V58.857h4.563l0.875,3.688h0.313
				c0.676-1.234,1.594-2.229,2.75-2.979C52.667,58.815,53.939,58.44,55.314,58.44z"/>
		</g>
	</g>
</g>
<g>
	<g transform="translate(259.790805, 242.633061)">
		<g>
			<path fill="#FFFFFF" d="M67.93,58.857v3.041l-3.458,0.896c0.625,0.989,0.938,2.094,0.938,3.313c0,2.364-0.828,4.203-2.479,5.521
				c-1.641,1.323-3.927,1.979-6.854,1.979l-1.084-0.063l-0.875-0.104c-0.625,0.474-0.938,1-0.938,1.583
				c0,0.875,1.104,1.313,3.313,1.313h3.75c2.417,0,4.256,0.521,5.521,1.563c1.26,1.031,1.896,2.553,1.896,4.563
				c0,2.568-1.078,4.563-3.229,5.979c-2.141,1.417-5.219,2.125-9.229,2.125c-3.084,0-5.438-0.536-7.063-1.604
				c-1.615-1.072-2.417-2.572-2.417-4.5c0-1.322,0.406-2.432,1.229-3.333c0.833-0.886,2.047-1.521,3.646-1.896
				c-0.614-0.261-1.146-0.693-1.604-1.292c-0.458-0.594-0.688-1.234-0.688-1.917c0-0.833,0.24-1.525,0.729-2.083
				c0.484-0.567,1.188-1.114,2.104-1.646c-1.156-0.5-2.073-1.297-2.75-2.396c-0.683-1.109-1.021-2.416-1.021-3.916
				c0-2.401,0.776-4.256,2.334-5.563c1.567-1.318,3.802-1.979,6.708-1.979c0.625,0,1.359,0.058,2.208,0.167
				c0.844,0.114,1.386,0.197,1.625,0.25H67.93z M50.909,83.982c0,0.833,0.396,1.484,1.188,1.958
				c0.802,0.469,1.922,0.708,3.354,0.708c2.15,0,3.838-0.302,5.063-0.896c1.219-0.583,1.833-1.391,1.833-2.417
				c0-0.822-0.364-1.391-1.083-1.708c-0.725-0.323-1.844-0.479-3.354-0.479h-3.104c-1.114,0-2.041,0.256-2.791,0.771
				C51.274,82.445,50.909,83.133,50.909,83.982z M53.097,66.065c0,1.198,0.271,2.141,0.813,2.833c0.552,0.698,1.386,1.042,2.5,1.042
				c1.136,0,1.964-0.344,2.479-1.042c0.525-0.692,0.791-1.635,0.791-2.833c0-2.651-1.094-3.979-3.271-3.979
				C54.201,62.086,53.097,63.414,53.097,66.065z"/>
		</g>
	</g>
</g>
<g>
	<g transform="translate(133.742883, 258.156725)">
		<g>
			<path fill="#FFFFFF" d="M7.56,86.052H5.081V74.135h6.833v2.084H7.56v3.063h4.042v2.063H7.56V86.052z"/>
		</g>
	</g>
</g>
<g>
	<g transform="translate(144.580573, 258.156725)">
		<g>
			<path fill="#FFFFFF" d="M10.485,81.49c0,0.906,0.146,1.583,0.438,2.042c0.292,0.458,0.771,0.688,1.438,0.688
				c0.667,0,1.146-0.229,1.438-0.688c0.292-0.459,0.438-1.136,0.438-2.042c0-0.901-0.146-1.573-0.438-2.021
				c-0.292-0.459-0.771-0.688-1.438-0.688c-0.667,0-1.146,0.224-1.438,0.666C10.631,79.896,10.485,80.573,10.485,81.49z
				 M16.777,81.49c0,1.474-0.396,2.636-1.188,3.479c-0.781,0.833-1.865,1.25-3.25,1.25c-0.875,0-1.646-0.188-2.313-0.563
				c-0.667-0.386-1.182-0.943-1.542-1.667c-0.365-0.719-0.542-1.552-0.542-2.5c0-1.5,0.386-2.656,1.167-3.479
				c0.776-0.817,1.864-1.229,3.271-1.229c0.875,0,1.646,0.188,2.313,0.563c0.667,0.375,1.177,0.927,1.542,1.646
				C16.595,79.698,16.777,80.532,16.777,81.49z"/>
		</g>
	</g>
</g>
<g>
	<g transform="translate(156.298106, 258.156725)">
		<g>
			<path fill="#FFFFFF" d="M18.849,86.052l-0.333-1.167h-0.125c-0.266,0.433-0.646,0.766-1.146,1
				c-0.49,0.219-1.037,0.334-1.646,0.334c-1.083,0-1.896-0.281-2.438-0.854c-0.542-0.583-0.813-1.406-0.813-2.479v-5.938h2.5v5.313
				c0,0.656,0.109,1.146,0.333,1.479c0.234,0.333,0.609,0.5,1.125,0.5c0.692,0,1.192-0.229,1.5-0.688
				c0.317-0.469,0.479-1.25,0.479-2.333v-4.271h2.479v9.104H18.849z"/>
		</g>
	</g>
</g>
<g>
	<g transform="translate(168.492222, 258.156725)">
		<g>
			<path fill="#FFFFFF" d="M24.873,86.052h-2.479V80.74c0-0.667-0.12-1.156-0.354-1.479c-0.239-0.333-0.604-0.5-1.104-0.5
				c-0.708,0-1.219,0.24-1.521,0.709c-0.307,0.458-0.458,1.224-0.458,2.291v4.292h-2.479v-9.104h1.896l0.333,1.167h0.125
				c0.276-0.442,0.656-0.776,1.146-1c0.484-0.219,1.042-0.333,1.667-0.333c1.052,0,1.854,0.286,2.396,0.854
				c0.552,0.573,0.833,1.396,0.833,2.479V86.052z"/>
		</g>
	</g>
</g>
<g>
	<g transform="translate(180.686334, 258.156725)">
		<g>
			<path fill="#FFFFFF" d="M23.416,86.219c-1.073,0-1.911-0.417-2.521-1.25c-0.615-0.834-0.917-1.984-0.917-3.459
				c0-1.484,0.313-2.646,0.938-3.479c0.625-0.834,1.479-1.25,2.563-1.25c1.151,0,2.026,0.447,2.625,1.333h0.083
				C26.062,77.438,26,76.823,26,76.282v-2.917h2.5v12.688h-1.917l-0.479-1.188H26C25.427,85.771,24.568,86.219,23.416,86.219z
				 M24.291,84.24c0.636,0,1.104-0.177,1.396-0.542c0.292-0.375,0.448-1.005,0.479-1.896v-0.271c0-0.969-0.156-1.667-0.458-2.084
				c-0.292-0.427-0.781-0.646-1.458-0.646c-0.557,0-0.99,0.239-1.292,0.708c-0.308,0.459-0.458,1.141-0.458,2.042
				c0,0.891,0.151,1.563,0.458,2.021C23.26,84.021,23.708,84.24,24.291,84.24z"/>
		</g>
	</g>
</g>
<g>
	<g transform="translate(192.574946, 258.156725)">
		<g>
			<path fill="#FFFFFF" d="M30.275,86.052l-0.479-1.229h-0.063c-0.417,0.516-0.85,0.875-1.292,1.084
				c-0.448,0.208-1.021,0.313-1.729,0.313c-0.875,0-1.563-0.25-2.063-0.75s-0.75-1.214-0.75-2.146c0-0.958,0.334-1.666,1-2.125
				c0.678-0.458,1.698-0.713,3.063-0.771l1.584-0.042V79.99c0-0.927-0.475-1.396-1.417-1.396c-0.724,0-1.578,0.224-2.563,0.666
				l-0.833-1.688c1.052-0.541,2.219-0.813,3.5-0.813c1.219,0,2.156,0.266,2.813,0.792c0.65,0.531,0.979,1.344,0.979,2.438v6.063
				H30.275z M29.546,81.823l-0.959,0.042c-0.724,0.031-1.266,0.161-1.625,0.396c-0.349,0.24-0.521,0.6-0.521,1.084
				c0,0.708,0.401,1.063,1.208,1.063c0.568,0,1.026-0.167,1.375-0.5c0.344-0.334,0.521-0.776,0.521-1.334V81.823z"/>
		</g>
	</g>
</g>
<g>
	<g transform="translate(204.103066, 258.156725)">
		<g>
			<path fill="#FFFFFF" d="M32.18,84.24c0.428,0,0.948-0.094,1.563-0.292v1.854c-0.625,0.276-1.391,0.417-2.291,0.417
				c-0.99,0-1.709-0.25-2.167-0.75c-0.458-0.511-0.688-1.271-0.688-2.271v-4.396H27.41V77.76l1.375-0.833l0.729-1.917h1.583v1.938
				h2.542v1.854h-2.542v4.396c0,0.365,0.094,0.625,0.292,0.792C31.581,84.157,31.847,84.24,32.18,84.24z"/>
		</g>
	</g>
</g>
<g>
	<g transform="translate(213.504899, 258.156725)">
		<g>
			<path fill="#FFFFFF" d="M31.356,74.594c0-0.818,0.447-1.229,1.354-1.229c0.9,0,1.354,0.411,1.354,1.229
				c0,0.375-0.113,0.677-0.332,0.896c-0.225,0.208-0.563,0.313-1.021,0.313C31.804,75.802,31.356,75.401,31.356,74.594z
				 M33.96,86.052h-2.479v-9.104h2.479V86.052z"/>
		</g>
	</g>
</g>
<g>
	<g transform="translate(221.293687, 258.156725)">
		<g>
			<path fill="#FFFFFF" d="M36.056,81.49c0,0.906,0.146,1.583,0.438,2.042c0.292,0.458,0.771,0.688,1.438,0.688
				c0.667,0,1.146-0.229,1.438-0.688c0.292-0.459,0.438-1.136,0.438-2.042c0-0.901-0.146-1.573-0.438-2.021
				c-0.291-0.459-0.771-0.688-1.438-0.688c-0.666,0-1.146,0.224-1.438,0.666C36.202,79.896,36.056,80.573,36.056,81.49z
				 M42.348,81.49c0,1.474-0.396,2.636-1.188,3.479c-0.781,0.833-1.864,1.25-3.25,1.25c-0.875,0-1.646-0.188-2.313-0.563
				c-0.667-0.386-1.183-0.943-1.542-1.667c-0.364-0.719-0.541-1.552-0.541-2.5c0-1.5,0.385-2.656,1.166-3.479
				c0.776-0.817,1.865-1.229,3.271-1.229c0.875,0,1.646,0.188,2.313,0.563c0.666,0.375,1.177,0.927,1.541,1.646
				C42.165,79.698,42.348,80.532,42.348,81.49z"/>
		</g>
	</g>
</g>
<g>
	<g transform="translate(233.011218, 258.156725)">
		<g>
			<path fill="#FFFFFF" d="M46.379,86.052h-2.48V80.74c0-0.667-0.119-1.156-0.354-1.479c-0.24-0.333-0.604-0.5-1.104-0.5
				c-0.709,0-1.219,0.24-1.521,0.709c-0.307,0.458-0.459,1.224-0.459,2.291v4.292h-2.479v-9.104h1.896l0.332,1.167h0.125
				c0.277-0.442,0.656-0.776,1.146-1c0.484-0.219,1.041-0.333,1.666-0.333c1.053,0,1.855,0.286,2.396,0.854
				c0.553,0.573,0.834,1.396,0.834,2.479V86.052z"/>
		</g>
	</g>
</g>
<g>
	<g transform="translate(173.245517, 217.476607)">
		<g>
			<path fill="#FFFFFF" d="M22.394,72.492H20.04v-9.083h-2.979v-1.938h8.313v1.938h-2.979V72.492z"/>
		</g>
	</g>
</g>
<g>
	<g transform="translate(183.62269, 217.476607)">
		<g>
			<path fill="#FFFFFF" d="M29.187,72.492h-2.292v-4.916c0-1.219-0.453-1.834-1.354-1.834c-0.656,0-1.125,0.225-1.417,0.667
				c-0.281,0.433-0.417,1.141-0.417,2.125v3.958h-2.292V60.764h2.292v2.396c0,0.183-0.016,0.62-0.042,1.313l-0.063,0.667h0.125
				c0.51-0.818,1.323-1.229,2.438-1.229c0.984,0,1.734,0.271,2.25,0.813c0.51,0.531,0.771,1.286,0.771,2.271V72.492z"/>
		</g>
	</g>
</g>
<g>
	<g transform="translate(194.904403, 217.476607)">
		<g>
			<path fill="#FFFFFF" d="M28.656,65.534c-0.49,0-0.87,0.161-1.146,0.479c-0.266,0.307-0.416,0.744-0.458,1.313h3.208
				c0-0.568-0.146-1.006-0.438-1.313C29.541,65.695,29.156,65.534,28.656,65.534z M28.989,72.639c-1.364,0-2.427-0.375-3.188-1.125
				c-0.766-0.75-1.146-1.803-1.146-3.167c0-1.417,0.354-2.505,1.063-3.271c0.708-0.776,1.688-1.167,2.938-1.167
				c1.177,0,2.104,0.344,2.771,1.021c0.667,0.683,1,1.62,1,2.813v1.104h-5.438c0.026,0.656,0.219,1.167,0.583,1.542
				c0.359,0.364,0.865,0.541,1.521,0.541c0.51,0,0.989-0.047,1.438-0.146c0.458-0.109,0.927-0.281,1.416-0.521v1.791
				c-0.406,0.198-0.833,0.344-1.291,0.438C30.197,72.586,29.641,72.639,28.989,72.639z"/>
		</g>
	</g>
</g>
</svg>
